<?xml version="1.0" encoding="UTF-8" standalone="no"?>
<svg
   xmlns:dc="http://purl.org/dc/elements/1.1/"
   xmlns:cc="http://creativecommons.org/ns#"
   xmlns:rdf="http://www.w3.org/1999/02/22-rdf-syntax-ns#"
   xmlns:svg="http://www.w3.org/2000/svg"
   xmlns="http://www.w3.org/2000/svg"
   xmlns:sodipodi="http://sodipodi.sourceforge.net/DTD/sodipodi-0.dtd"
   xmlns:inkscape="http://www.inkscape.org/namespaces/inkscape"
   height="273"
   viewBox="-497 263.9 2231.3464 273.00003"
   width="2231.3"
   version="1.1"
   enable-background="new -497 263.9 273 264"
   id="svg10"
   inkscape:version="0.91+devel+osxmenu r12922"
   sodipodi:docname="opensourcedesign-logo-text.svg">
  <metadata
     id="metadata52">
    <rdf:RDF>
      <cc:Work
         rdf:about="">
        <dc:format>image/svg+xml</dc:format>
        <dc:type
           rdf:resource="http://purl.org/dc/dcmitype/StillImage" />
      </cc:Work>
    </rdf:RDF>
  </metadata>
  <defs
     id="defs50" />
  <sodipodi:namedview
     pagecolor="#ffffff"
     bordercolor="#666666"
     borderopacity="1"
     objecttolerance="10"
     gridtolerance="10"
     guidetolerance="10"
     inkscape:pageopacity="0"
     inkscape:pageshadow="2"
     inkscape:window-width="681"
     inkscape:window-height="480"
     id="namedview48"
     showgrid="false"
     inkscape:zoom="0.11444983"
     inkscape:cx="1510.2796"
     inkscape:cy="274.49624"
     inkscape:window-x="0"
     inkscape:window-y="23"
     inkscape:window-maximized="0"
     inkscape:current-layer="svg10" />
  <path
     style="stroke-width:0.9999792"
     d="M 0 0.001953125 L 0 272.99805 L 87.697266 272.99805 L 87.798828 272.79688 C 87.798828 272.79688 115.49734 198.0995 119.19727 192.59961 C 119.19727 192.59961 87.297284 185.3997 88.197266 133.30078 C 89.097247 81.201864 128.99805 54.701172 128.99805 54.701172 C 128.99805 54.701172 121.99792 94.700307 153.69727 109.5 C 153.69727 109.5 184.1953 118.20103 183.69531 148.90039 C 183.09532 179.59975 163.99706 188.79813 154.19727 192.99805 C 157.79719 198.29794 183.59613 267.89659 185.49609 272.89648 L 272.99414 272.99805 L 272.99414 0.001953125 L 0 0.001953125 z M 1963.7715 51.59375 C 1958.6466 51.59375 1954.3964 53.28132 1951.0215 56.65625 C 1947.7716 59.906182 1946.1465 64.156359 1946.1465 69.40625 C 1946.1465 74.531144 1947.7716 78.78132 1951.0215 82.15625 C 1954.3964 85.53118 1958.6466 87.21875 1963.7715 87.21875 C 1968.896 87.21875 1973.0821 85.53118 1976.332 82.15625 C 1979.707 78.78132 1981.3945 74.531144 1981.3945 69.40625 C 1981.3945 64.156359 1979.707 59.906182 1976.332 56.65625 C 1973.0824 53.28132 1968.8964 51.59375 1963.7715 51.59375 z M 941.20898 65.65625 C 930.7092 65.65625 921.45882 67.34382 913.45898 70.71875 C 905.58415 73.968349 899.45889 78.656377 895.08398 84.78125 C 890.83407 90.905789 888.70898 98.031085 888.70898 106.15625 C 888.70898 114.78074 890.77157 121.71691 894.89648 126.9668 C 899.14673 132.09169 904.20911 135.96685 910.08398 138.5918 C 915.95853 141.09174 923.39667 143.59185 932.39648 146.0918 C 938.39636 147.71676 943.02155 149.15432 946.27148 150.4043 C 949.64641 151.52927 952.39653 153.09184 954.52148 155.0918 C 956.77144 157.09176 957.89648 159.59186 957.89648 162.5918 C 957.89648 166.21672 956.39642 168.96684 953.39648 170.8418 C 950.52154 172.71676 946.52138 173.6543 941.39648 173.6543 C 934.39663 173.6543 926.33413 171.77922 917.20898 168.0293 C 908.20884 164.27904 900.39635 159.46667 893.77148 153.5918 L 880.45898 180.40234 C 888.33415 187.02721 897.64671 192.27742 908.39648 196.15234 C 919.27159 199.90227 930.14704 201.77734 941.02148 201.77734 C 950.89595 201.77734 959.8322 200.21478 967.83203 197.08984 C 975.95686 193.96491 982.33213 189.33972 986.95703 183.21484 C 991.58194 176.96497 993.89453 169.46466 993.89453 160.71484 C 993.89453 151.96469 991.76944 144.90223 987.51953 139.52734 C 983.26962 134.02712 978.14441 129.96479 972.14453 127.33984 C 966.26999 124.7149 958.76968 122.08979 949.64453 119.46484 C 943.51966 117.58988 938.89642 116.08982 935.77148 114.96484 C 932.64655 113.71487 930.02144 112.1523 927.89648 110.27734 C 925.77153 108.27739 924.70898 105.83978 924.70898 102.96484 C 924.70898 99.964906 925.89653 97.716766 928.27148 96.216797 C 930.77143 94.591831 934.14462 93.779297 938.39453 93.779297 C 943.76975 93.779297 950.39503 95.089898 958.26953 97.714844 C 966.26937 100.33979 973.76968 103.71493 980.76953 107.83984 L 980.76953 107.84375 L 993.70703 80.46875 C 986.70718 75.96851 978.58184 72.406195 969.33203 69.78125 C 960.08222 67.031307 950.70879 65.65625 941.20898 65.65625 z M 392.18164 66.220703 L 392.18164 66.222656 C 378.80659 66.222656 366.68108 69.160278 355.80664 75.035156 C 345.05686 80.910368 336.55846 88.972869 330.30859 99.222656 C 324.18372 109.47244 321.12109 120.97097 321.12109 133.7207 C 321.12109 146.5951 324.18372 158.28342 330.30859 168.7832 C 336.55846 179.15765 345.05686 187.34387 355.80664 193.34375 C 366.68175 199.21863 378.80725 202.15625 392.18164 202.15625 C 405.5567 202.15625 417.61936 199.15613 428.36914 193.15625 C 439.24391 187.15637 447.74427 178.97015 453.86914 168.5957 C 460.11901 158.22059 463.24414 146.5951 463.24414 133.7207 C 463.24414 120.97097 460.11901 109.47049 453.86914 99.220703 C 447.74393 88.970583 439.24358 80.908081 428.36914 75.033203 C 417.61936 69.158325 405.5567 66.220703 392.18164 66.220703 z M 1593.6426 68.279297 L 1593.6426 199.71484 L 1648.9531 199.71484 C 1662.9528 199.71484 1675.3283 196.96668 1686.0781 191.4668 C 1696.9529 185.96691 1705.3263 178.21659 1711.2012 168.2168 C 1717.201 158.217 1720.2012 146.7787 1720.2012 133.9043 C 1720.2012 121.02923 1717.2635 109.65571 1711.3887 99.78125 C 1705.5141 89.781458 1697.2657 82.031136 1686.6406 76.53125 C 1676.1408 71.031364 1664.0153 68.28125 1650.2656 68.28125 L 1650.2656 68.279297 L 1593.6426 68.279297 z M 392.55664 95.283203 C 399.05684 95.283203 404.99425 96.970773 410.36914 100.3457 C 415.86936 103.7203 420.18171 108.40637 423.30664 114.40625 C 426.43158 120.28079 427.99414 126.78106 427.99414 133.90625 C 427.99414 141.1561 426.43158 147.78137 423.30664 153.78125 C 420.18137 159.65579 415.86903 164.34382 410.36914 167.84375 C 404.99392 171.21868 399.05651 172.9043 392.55664 172.9043 C 386.05678 172.9043 380.05653 171.21868 374.55664 167.84375 C 369.05709 164.34416 364.61907 159.65613 361.24414 153.78125 C 357.99421 147.78137 356.36914 141.1561 356.36914 133.90625 C 356.36914 126.7814 357.99421 120.28113 361.24414 114.40625 C 364.49407 108.40671 368.86925 103.72063 374.36914 100.3457 C 379.99436 96.970773 386.05678 95.283203 392.55664 95.283203 z M 1627.9551 96.220703 L 1649.5156 96.220703 C 1656.3905 96.220703 1662.5157 97.845771 1667.8906 101.0957 C 1673.2652 104.2203 1677.4532 108.65832 1680.4531 114.4082 C 1683.5781 120.15808 1685.1406 126.78336 1685.1406 134.2832 C 1685.1406 141.65838 1683.7031 148.22082 1680.8281 153.9707 C 1677.9532 159.72025 1673.953 164.15631 1668.8281 167.28125 C 1663.7032 170.40619 1657.828 171.96875 1651.2031 171.96875 L 1651.2051 171.9707 L 1627.9551 171.9707 L 1627.9551 96.220703 z M 1887.1211 96.779297 C 1874.8713 96.779297 1864.8729 99.716919 1857.123 105.5918 C 1849.3732 111.34168 1845.498 119.34201 1845.498 129.5918 C 1845.498 136.21666 1847.1856 141.58993 1850.5605 145.71484 C 1854.0608 149.83976 1858.1231 152.96489 1862.748 155.08984 C 1867.3726 157.0898 1873.2479 159.15239 1880.373 161.27734 C 1886.3729 162.90231 1890.7481 164.40237 1893.498 165.77734 C 1896.373 167.15232 1897.8105 169.0899 1897.8105 171.58984 C 1897.8105 173.5898 1896.8105 175.15237 1894.8105 176.27734 C 1892.9356 177.27732 1890.373 177.77734 1887.123 177.77734 C 1881.4982 177.77734 1875.4979 176.7148 1869.123 174.58984 C 1862.8732 172.33989 1856.8729 169.21476 1851.123 165.21484 L 1840.623 186.77734 C 1846.7483 191.52725 1853.7485 195.1524 1861.623 197.65234 C 1869.4975 200.02729 1877.7479 201.21484 1886.373 201.21484 C 1899.1234 201.21484 1909.436 198.33972 1917.3105 192.58984 C 1925.3104 186.71463 1929.3086 178.65213 1929.3086 168.40234 C 1929.3086 161.65282 1927.5585 156.21476 1924.0586 152.08984 C 1920.559 147.83993 1916.3729 144.7148 1911.498 142.71484 C 1906.7481 140.58989 1900.7479 138.4648 1893.498 136.33984 C 1887.4982 134.71488 1883.123 133.21482 1880.373 131.83984 C 1877.6231 130.46487 1876.248 128.6523 1876.248 126.40234 C 1876.248 124.27739 1877.1231 122.71482 1878.873 121.71484 C 1880.623 120.58987 1882.9356 120.0293 1885.8105 120.0293 C 1894.185 120.0293 1904.9355 123.46532 1918.0605 130.33984 L 1929.3086 108.5918 C 1922.9334 104.71688 1916.1209 101.77926 1908.8711 99.779297 C 1901.7459 97.779338 1894.4956 96.779297 1887.1211 96.779297 z M 789.06445 96.96875 C 781.68927 96.96875 775.12683 98.468812 769.37695 101.46875 C 763.75207 104.46835 759.12688 108.90637 755.50195 114.78125 L 755.50195 98.28125 L 722.12695 98.28125 L 722.12695 199.71875 L 755.50195 199.71875 L 755.50195 146.0957 C 756.12694 140.34582 758.18953 135.72063 761.68945 132.2207 C 765.31471 128.72078 769.87707 126.9082 775.37695 126.7832 C 780.62651 126.7832 784.81256 128.47077 787.9375 131.8457 C 791.06244 135.09564 792.625 139.59582 792.625 145.3457 L 792.625 199.71875 L 825.8125 199.71875 L 825.8125 135.78125 C 825.8125 123.90683 822.43736 114.47056 815.6875 107.4707 C 809.06297 100.47085 800.18956 96.970703 789.06445 96.970703 L 789.06445 96.96875 z M 2194.5547 96.96875 C 2187.1795 96.96875 2180.6171 98.468812 2174.8672 101.46875 C 2169.2423 104.46835 2164.6171 108.90637 2160.9922 114.78125 L 2160.9922 98.28125 L 2127.6172 98.28125 L 2127.6172 199.71875 L 2160.9922 199.71875 L 2160.9922 146.0957 C 2161.6172 140.34582 2163.6798 135.72063 2167.1797 132.2207 C 2170.8049 128.72078 2175.3673 126.9082 2180.8672 126.7832 C 2186.1167 126.7832 2190.3048 128.47077 2193.4297 131.8457 C 2196.5546 135.09564 2198.1172 139.59582 2198.1172 145.3457 L 2198.1172 199.71875 L 2231.3027 199.71875 L 2231.3027 135.78125 C 2231.3027 123.90683 2227.9295 114.47056 2221.1797 107.4707 C 2214.5552 100.47085 2205.6798 96.970703 2194.5547 96.970703 L 2194.5547 96.96875 z M 1321.6875 96.972656 C 1314.5626 96.972656 1308.1874 98.535221 1302.5625 101.66016 C 1297.0631 104.78484 1292.5623 109.28403 1289.0625 115.1582 L 1289.0625 98.283203 L 1255.6895 98.283203 L 1255.6895 199.7207 L 1289.0625 199.7207 L 1289.0625 147.97266 C 1289.8125 141.59779 1292.6251 136.59758 1297.5 132.97266 C 1302.3752 129.22273 1308.7505 127.34766 1316.625 127.34766 C 1318.875 127.34766 1320.5625 127.41016 1321.6875 127.53516 L 1321.6875 96.972656 z M 2040.3457 97.154297 C 2032.0959 97.154297 2024.7206 99.15438 2018.2207 103.1543 C 2011.7205 107.15421 2006.6581 112.77945 2003.0332 120.0293 C 1999.5333 127.27915 1997.7832 135.65449 1997.7832 145.1543 C 1997.7832 154.77943 1999.5958 163.34195 2003.2207 170.8418 C 2006.9706 178.21664 2012.0958 183.96688 2018.5957 188.0918 C 2025.2209 192.09171 2032.7193 194.08984 2041.0938 194.08984 C 2053.5935 194.08984 2063.2189 189.65378 2069.9688 180.7793 L 2069.9688 191.6543 C 2069.9687 197.65417 2067.7812 202.40437 2063.4062 205.9043 C 2059.0317 209.40422 2053.0955 211.1543 2045.5957 211.1543 C 2040.0962 211.1543 2034.6581 210.27926 2029.2832 208.5293 C 2023.9083 206.77933 2018.9081 204.34173 2014.2832 201.2168 L 2002.6582 224.27734 C 2008.6581 228.27726 2015.5962 231.46489 2023.4707 233.83984 C 2031.3452 236.21479 2039.5314 237.40234 2048.0312 237.40234 C 2058.9064 237.40234 2068.4689 235.46476 2076.7188 231.58984 C 2085.0936 227.84059 2091.5938 222.40448 2096.2188 215.2793 C 2100.8437 208.27944 2103.1562 200.09127 2103.1562 190.7168 L 2103.1562 98.28125 L 2103.1562 98.279297 L 2069.9688 98.279297 L 2069.9688 110.6543 C 2066.5938 106.27939 2062.3456 102.96675 2057.2207 100.7168 C 2052.2208 98.341846 2046.5956 97.154297 2040.3457 97.154297 z M 1380.4922 97.15625 C 1370.1177 97.15625 1360.9315 99.343841 1352.9316 103.71875 C 1345.0568 107.96866 1338.9315 114.09392 1334.5566 122.09375 C 1330.1817 129.96892 1327.9941 139.0943 1327.9941 149.46875 C 1327.9941 159.71854 1330.1192 168.71696 1334.3691 176.4668 C 1338.7444 184.21664 1344.8696 190.21689 1352.7441 194.4668 C 1360.6193 198.71671 1369.7447 200.8418 1380.1191 200.8418 C 1390.8689 200.8418 1400.2424 198.71671 1408.2422 194.4668 C 1416.242 190.21689 1422.2423 184.21664 1426.2422 176.4668 L 1401.6816 162.40625 C 1397.6817 170.03142 1391.0564 173.84375 1381.8066 173.84375 C 1375.8068 173.84375 1370.9316 171.59366 1367.1816 167.09375 C 1363.4317 162.59384 1361.5566 156.65576 1361.5566 149.28125 C 1361.5566 142.0314 1363.4317 136.15811 1367.1816 131.6582 C 1370.9316 127.0333 1375.8068 124.7207 1381.8066 124.7207 C 1390.3055 124.7207 1396.9299 128.22042 1401.6797 135.21875 L 1425.8672 121.15625 C 1421.4919 113.53141 1415.3667 107.65616 1407.4922 103.53125 C 1399.6177 99.281338 1390.6173 97.15625 1380.4922 97.15625 z M 544.55664 97.160156 L 544.55469 97.162109 C 532.05495 97.162109 522.11865 101.91231 514.74414 111.41211 L 514.74414 98.287109 L 481.36914 98.287109 L 481.36914 236.0957 L 514.74414 236.0957 L 514.74414 186.5957 C 518.36907 191.22094 522.74425 194.78326 527.86914 197.2832 C 533.11936 199.65815 538.93177 200.8457 545.30664 200.8457 C 554.55645 200.8457 562.68179 198.72061 569.68164 194.4707 C 576.80616 190.22079 582.24227 184.22054 585.99219 176.4707 C 589.86711 168.72086 591.80469 159.72244 591.80469 149.47266 C 591.80469 139.09754 589.8046 129.97216 585.80469 122.09766 C 581.9301 114.09782 576.42987 107.97257 569.30469 103.72266 C 562.1795 99.347747 553.93111 97.160156 544.55664 97.160156 z M 653.5957 97.160156 C 643.09592 97.160156 633.84554 99.347747 625.8457 103.72266 C 617.8462 107.97257 611.65811 114.09782 607.2832 122.09766 C 602.90829 129.97283 600.7207 139.09821 600.7207 149.47266 C 600.7207 159.72244 602.84579 168.72086 607.0957 176.4707 C 611.47028 184.22054 617.72054 190.22079 625.8457 194.4707 C 633.97087 198.72061 643.47126 200.8457 654.3457 200.8457 C 663.72084 200.8457 672.09619 199.34564 679.4707 196.3457 C 686.97055 193.22077 693.34386 188.72058 698.59375 182.8457 L 681.15625 165.4082 C 677.78132 168.78313 674.03116 171.34574 669.90625 173.0957 C 665.90667 174.84567 661.72061 175.7207 657.3457 175.7207 C 651.59582 175.7207 646.72062 174.22064 642.7207 171.2207 C 638.72079 168.0961 635.90817 163.66004 634.2832 157.91016 L 704.78125 157.91016 C 704.90625 156.53518 704.96875 154.5351 704.96875 151.91016 C 704.96875 134.91051 700.53269 121.53495 691.6582 111.78516 C 682.78372 102.03536 670.09536 97.160156 653.5957 97.160156 z M 1058.4883 97.160156 C 1047.4885 97.160156 1037.8003 99.347747 1029.4258 103.72266 C 1021.051 107.97323 1014.5526 114.03565 1009.9277 121.91016 C 1005.4278 129.66 1003.1777 138.66037 1003.1777 148.91016 C 1003.1777 159.28527 1005.4278 168.41065 1009.9277 176.28516 C 1014.553 184.03533 1021.0513 190.09775 1029.4258 194.47266 C 1037.8003 198.72257 1047.4885 200.84766 1058.4883 200.84766 C 1069.4881 200.84766 1079.1743 198.72257 1087.5488 194.47266 C 1095.9237 190.09741 1102.4239 184.035 1107.0488 176.28516 C 1111.6737 168.40999 1113.9863 159.28461 1113.9863 148.91016 C 1113.9863 138.66037 1111.6737 129.66 1107.0488 121.91016 C 1102.4236 114.03499 1095.9233 107.97257 1087.5488 103.72266 C 1079.1743 99.347747 1069.4881 97.160156 1058.4883 97.160156 z M 1483.4082 97.160156 C 1472.9084 97.160156 1463.658 99.347747 1455.6582 103.72266 C 1447.6587 107.97257 1441.4706 114.09782 1437.0957 122.09766 C 1432.7208 129.97283 1430.5352 139.09821 1430.5352 149.47266 C 1430.5352 159.72244 1432.6583 168.72086 1436.9082 176.4707 C 1441.2828 184.22054 1447.533 190.22079 1455.6582 194.4707 C 1463.7834 198.72061 1473.2838 200.8457 1484.1582 200.8457 C 1493.5333 200.8457 1501.9087 199.34564 1509.2832 196.3457 C 1516.783 193.22077 1523.1583 188.72058 1528.4082 182.8457 L 1510.9688 165.4082 C 1507.5938 168.78313 1503.8456 171.34574 1499.7207 173.0957 C 1495.7211 174.84567 1491.5331 175.7207 1487.1582 175.7207 C 1481.4083 175.7207 1476.5331 174.22064 1472.5332 171.2207 C 1468.5333 168.0961 1465.7207 163.66004 1464.0957 157.91016 L 1534.5938 157.91016 C 1534.7187 156.53518 1534.7812 154.5351 1534.7812 151.91016 C 1534.7813 134.91051 1530.3452 121.53495 1521.4707 111.78516 C 1512.5962 102.03536 1499.9098 97.160156 1483.4102 97.160156 L 1483.4082 97.160156 z M 1781.8613 97.160156 C 1771.3615 97.160156 1762.1112 99.347747 1754.1113 103.72266 C 1746.1118 107.97257 1739.9257 114.09782 1735.5508 122.09766 C 1731.1759 129.97283 1728.9883 139.09821 1728.9883 149.47266 C 1728.9883 159.72244 1731.1134 168.72086 1735.3633 176.4707 C 1739.7379 184.22054 1745.9881 190.22079 1754.1133 194.4707 C 1762.2384 198.72061 1771.7369 200.8457 1782.6113 200.8457 C 1791.9865 200.8457 1800.3618 199.34564 1807.7363 196.3457 C 1815.2362 193.22077 1821.6114 188.72058 1826.8613 182.8457 L 1809.4238 165.4082 C 1806.0489 168.78313 1802.2987 171.34574 1798.1738 173.0957 C 1794.1742 174.84567 1789.9862 175.7207 1785.6113 175.7207 C 1779.8614 175.7207 1774.9862 174.22064 1770.9863 171.2207 C 1766.9864 168.0961 1764.1757 163.66004 1762.5508 157.91016 L 1833.0488 157.91016 C 1833.1738 156.53518 1833.2363 154.5351 1833.2363 151.91016 C 1833.2363 134.91051 1828.7983 121.53495 1819.9238 111.78516 C 1811.0493 102.03536 1798.3629 97.160156 1781.8633 97.160156 L 1781.8613 97.160156 z M 1947.459 98.28125 L 1947.459 199.71875 L 1980.6465 199.71875 L 1980.6465 98.28125 L 1947.459 98.28125 z M 1128.1758 98.283203 L 1128.1758 162.4082 C 1128.1758 174.15729 1131.4259 183.59356 1137.9258 190.71875 C 1144.551 197.7186 1153.3635 201.21875 1164.3633 201.21875 C 1179.1136 200.96876 1189.9263 194.96851 1196.8008 183.21875 L 1196.8008 199.71875 L 1230.1738 199.71875 L 1230.1738 98.283203 L 1196.7988 98.283203 L 1196.7988 148.3457 C 1196.7988 155.09556 1195.1113 160.59384 1191.7363 164.84375 C 1188.3614 168.96866 1183.7362 171.09375 1177.8613 171.21875 C 1172.8614 171.21875 1168.8613 169.59368 1165.8613 166.34375 C 1162.9864 163.09382 1161.5508 158.59363 1161.5508 152.84375 L 1161.5508 98.283203 L 1128.1758 98.283203 z M 653.78516 120.59961 C 659.41004 120.59961 663.90827 122.41218 667.2832 126.03711 C 670.78313 129.5367 672.5332 134.22278 672.5332 140.09766 L 633.53516 140.09766 C 634.66013 134.09778 636.97273 129.34954 640.47266 125.84961 C 644.09725 122.34968 648.53527 120.59961 653.78516 120.59961 z M 1483.5977 120.59961 C 1489.2225 120.59961 1493.7227 122.41218 1497.0977 126.03711 C 1500.5976 129.5367 1502.3477 134.22278 1502.3477 140.09766 L 1463.3477 140.09766 C 1464.4726 134.09778 1466.7852 129.34954 1470.2852 125.84961 C 1473.9097 122.34968 1478.3478 120.59961 1483.5977 120.59961 z M 1782.0508 120.59961 C 1787.6757 120.59961 1792.1759 122.41218 1795.5508 126.03711 C 1799.0507 129.5367 1800.8008 134.22278 1800.8008 140.09766 L 1761.8027 140.09766 C 1762.9277 134.09778 1765.2384 129.34954 1768.7383 125.84961 C 1772.3629 122.34968 1776.8009 120.59961 1782.0508 120.59961 z M 2049.5332 122.28125 C 2055.6577 122.28125 2060.5938 124.46884 2064.3438 128.84375 C 2068.0937 133.21833 2069.9688 138.96856 2069.9688 146.09375 C 2069.9687 153.09327 2068.0937 158.77939 2064.3438 163.1543 C 2060.5942 167.52921 2055.6581 169.7168 2049.5332 169.7168 C 2043.4083 169.7168 2038.4081 167.52921 2034.5332 163.1543 C 2030.7833 158.77939 2028.9082 153.09327 2028.9082 146.09375 C 2028.9082 139.09423 2030.7833 133.40616 2034.5332 129.03125 C 2038.4081 124.53134 2043.4083 122.28125 2049.5332 122.28125 z M 536.30664 123.41016 C 542.80651 123.41016 548.05477 125.78525 552.05469 130.53516 C 556.1796 135.16006 558.24219 141.22248 558.24219 148.72266 C 558.24219 156.22283 556.1796 162.28525 552.05469 166.91016 C 548.05477 171.53506 542.80651 173.84766 536.30664 173.84766 C 529.93211 173.84766 524.74406 171.53506 520.74414 166.91016 C 516.74422 162.28525 514.74414 156.22283 514.74414 148.72266 C 514.74414 141.22248 516.74422 135.16006 520.74414 130.53516 C 524.74372 125.78525 529.93177 123.41016 536.30664 123.41016 z M 1058.4883 124.16016 C 1064.9881 124.16016 1070.2384 126.47275 1074.2383 131.09766 C 1078.3632 135.72289 1080.4258 141.78531 1080.4258 149.28516 C 1080.4258 156.91 1078.4257 163.03525 1074.4258 167.66016 C 1070.4255 172.28506 1065.1131 174.59766 1058.4883 174.59766 C 1051.9884 174.59766 1046.7382 172.28506 1042.7383 167.66016 C 1038.7384 163.03559 1036.7383 156.91033 1036.7383 149.28516 C 1036.7383 141.78498 1038.7384 135.72256 1042.7383 131.09766 C 1046.7382 126.47275 1051.9884 124.16016 1058.4883 124.16016 z "
     transform="matrix(1.0000208,0,0,1.0000208,-497,263.89718)"
     id="path12" />
</svg>
